<svg width="714" height="83" viewBox="0 0 714 83" fill="none" xmlns="http://www.w3.org/2000/svg">
<path d="M52.928 57.704C52.928 75.496 39.616 81 18.752 81H0.96V1.768H15.552C33.472 1.768 46.144 6.376 46.144 20.968C46.144 29.672 40.768 35.304 32.192 36.456C45.504 37.864 52.928 44.776 52.928 57.704ZM37.568 21.352C37.696 11.624 30.4 8.424 16.448 8.424H9.408V33.64H16.96C32.32 33.64 37.568 30.056 37.568 21.352ZM44.352 57.32C44.352 46.824 38.08 40.424 19.52 40.424H9.408V73.832H20.8C37.568 73.832 44.096 68.84 44.352 57.32ZM77.2 81V1.64H85.648V81H77.2ZM190.999 41.32C190.999 67.432 172.951 82.024 150.423 82.024C127.895 82.024 109.975 67.432 109.975 41.192C109.975 15.08 127.895 0.487999 150.423 0.487999C172.951 0.487999 190.999 15.08 190.999 41.32ZM182.295 41.32C182.295 19.688 168.087 7.656 150.423 7.656C132.887 7.656 118.679 19.688 118.679 41.192C118.679 62.952 132.887 74.856 150.423 74.856C168.087 74.856 182.295 62.952 182.295 41.32ZM282.889 71.528C279.817 74.344 267.785 82.024 252.041 82.024C228.617 82.024 211.465 67.304 211.465 41.192C211.465 15.336 229.385 0.615997 253.321 0.615997C266.761 0.615997 277.513 6.504 280.585 8.424L280.073 15.848C276.617 13.544 265.481 7.528 253.449 7.528C234.505 7.528 219.913 19.56 219.913 41.192C219.913 62.952 233.737 75.112 252.169 75.112C262.409 75.112 271.625 71.016 274.441 68.456V38.76H282.889V71.528ZM371.235 81.64C346.403 81.64 345.635 45.8 325.667 45.8H318.243V81H309.795V1.64H326.435C344.099 1.64 355.107 9.32 355.107 23.528C355.107 34.536 347.555 41.192 337.443 42.728C350.243 46.824 355.747 74.728 372.899 74.472L371.235 81.64ZM346.787 23.784C346.787 13.672 339.491 8.424 327.203 8.424H318.243V39.144H326.435C339.235 39.144 346.787 34.024 346.787 23.784ZM459.521 81H450.561L442.369 62.952H399.745L391.681 81H382.465L420.097 0.231995H421.889L459.521 81ZM420.993 15.72L402.561 56.168H439.425L420.993 15.72ZM532.904 29.16C532.904 46.184 520.36 56.68 495.656 56.68H487.848V81H479.4V1.64H495.656C520.488 1.64 532.904 12.904 532.904 29.16ZM524.584 29.16C524.584 16.872 514.856 8.68 497.576 8.68H487.976V49.768H497.576C514.856 49.768 524.584 42.088 524.584 29.16ZM613.585 81V40.552H565.713V81H557.265V1.64H565.713V33.512H613.585V1.64H622.161V81H613.585ZM677.132 44.136L704.652 1.64H713.996L681.356 51.048V81H672.908V51.304L640.14 1.64H649.228L677.132 44.136Z" fill="#EFE9E5"/>
</svg>
