<svg width="421" height="119" viewBox="0 0 421 119" fill="none" xmlns="http://www.w3.org/2000/svg">
<path d="M21.976 41.576C10.328 41.576 1.56 34.024 1.56 21.096C1.56 8.168 10.328 0.807999 21.976 0.807999C28.504 0.807999 33.752 3.688 35.224 4.712L34.904 8.616C33.432 7.656 28.248 4.328 22.104 4.328C13.016 4.328 5.912 10.28 5.912 21.032C5.912 31.72 12.824 37.928 21.976 37.928C28.376 37.928 32.92 34.984 34.712 33.704L36.504 37.16C31.896 40.296 27.096 41.576 21.976 41.576ZM75.5725 41V20.776H51.6365V41H47.4125V1.32H51.6365V17.256H75.5725V1.32H79.8605V41H75.5725ZM124.69 41.32C112.274 41.32 111.89 23.4 101.906 23.4H98.194V41H93.97V1.32H102.29C111.122 1.32 116.626 5.16 116.626 12.264C116.626 17.768 112.85 21.096 107.794 21.864C114.194 23.912 116.946 37.864 125.522 37.736L124.69 41.32ZM112.466 12.392C112.466 7.336 108.818 4.712 102.674 4.712H98.194V20.072H102.29C108.69 20.072 112.466 17.512 112.466 12.392ZM134.465 41V1.32H138.689V41H134.465ZM174.148 4.008C174.084 5.288 173.956 6.568 173.892 7.848C171.14 5.8 167.62 4.392 163.972 4.392C160.132 4.392 155.652 5.928 155.652 10.472C155.652 20.328 176.644 16.04 176.644 30.312C176.644 36.968 171.332 41.704 163.268 41.704C158.852 41.704 154.436 40.616 149.892 37.352L151.684 34.152C155.396 36.776 159.62 38.12 163.204 38.12C169.156 38.12 172.484 34.792 172.484 30.312C172.484 19.112 151.428 23.528 151.428 10.536C151.428 4.328 156.676 0.743999 163.78 0.743999C168.068 0.743999 171.716 2.216 174.148 4.008ZM199.919 4.84V41H195.759V4.84H184.303L185.199 1.32H211.055V4.84H199.919ZM256.105 21.16C256.105 34.216 247.081 41.512 235.817 41.512C224.553 41.512 215.593 34.216 215.593 21.096C215.593 8.04 224.553 0.743999 235.817 0.743999C247.081 0.743999 256.105 8.04 256.105 21.16ZM251.753 21.16C251.753 10.344 244.649 4.328 235.817 4.328C227.049 4.328 219.945 10.344 219.945 21.096C219.945 31.976 227.049 37.928 235.817 37.928C244.649 37.928 251.753 31.976 251.753 21.16ZM295.009 15.08C295.009 23.592 288.737 28.84 276.385 28.84H272.481V41H268.257V1.32H276.385C288.801 1.32 295.009 6.952 295.009 15.08ZM290.849 15.08C290.849 8.936 285.985 4.84 277.345 4.84H272.545V25.384H277.345C285.985 25.384 290.849 21.544 290.849 15.08ZM335.35 41V20.776H311.414V41H307.19V1.32H311.414V17.256H335.35V1.32H339.638V41H335.35ZM353.747 41V1.32H374.419V4.84H357.971V17.256H370.515V20.776H357.971V37.416H379.731L378.835 41H353.747ZM420.025 41.32C407.609 41.32 407.225 23.4 397.241 23.4H393.529V41H389.305V1.32H397.625C406.457 1.32 411.961 5.16 411.961 12.264C411.961 17.768 408.185 21.096 403.129 21.864C409.529 23.912 412.281 37.864 420.857 37.736L420.025 41.32ZM407.801 12.392C407.801 7.336 404.153 4.712 398.009 4.712H393.529V20.072H397.625C404.025 20.072 407.801 17.512 407.801 12.392ZM24.856 81.008C24.792 82.288 24.664 83.568 24.6 84.848C21.848 82.8 18.328 81.392 14.68 81.392C10.84 81.392 6.36 82.928 6.36 87.472C6.36 97.328 27.352 93.04 27.352 107.312C27.352 113.968 22.04 118.704 13.976 118.704C9.56 118.704 5.144 117.616 0.6 114.352L2.392 111.152C6.104 113.776 10.328 115.12 13.912 115.12C19.864 115.12 23.192 111.792 23.192 107.312C23.192 96.112 2.136 100.528 2.136 87.536C2.136 81.328 7.384 77.744 14.488 77.744C18.776 77.744 22.424 79.216 24.856 81.008ZM66.946 118.576C55.298 118.576 46.53 111.024 46.53 98.096C46.53 85.168 55.298 77.808 66.946 77.808C73.474 77.808 78.722 80.688 80.194 81.712L79.874 85.616C78.402 84.656 73.218 81.328 67.074 81.328C57.986 81.328 50.882 87.28 50.882 98.032C50.882 108.72 57.794 114.928 66.946 114.928C73.346 114.928 77.89 111.984 79.682 110.704L81.474 114.16C76.866 117.296 72.066 118.576 66.946 118.576ZM130.143 118V97.776H106.207V118H101.983V78.32H106.207V94.256H130.143V78.32H134.431V118H130.143ZM190.204 99.056C190.204 111.152 185.212 118.704 174.012 118.704C162.812 118.704 157.82 111.088 157.82 98.928V78.32H162.044V97.648C162.044 108.784 164.732 115.12 173.948 115.12C183.228 115.12 185.98 108.912 185.98 97.712V78.32H190.204V99.056ZM230.746 100.144L244.25 77.808H245.146L252.186 118H248.09L242.714 87.472L230.746 107.312L218.842 87.472L213.466 118H209.37L216.41 77.808H217.242L230.746 100.144ZM308.011 118H303.531L299.435 108.976H278.123L274.091 118H269.483L288.299 77.616H289.195L308.011 118ZM288.747 85.36L279.531 105.584H297.963L288.747 85.36ZM360.19 118.512L331.774 86.768V118H327.55V77.68H328.382L356.926 109.616V78.32H361.15V118.512H360.19ZM417.473 118.512L389.057 86.768V118H384.833V77.68H385.665L414.209 109.616V78.32H418.433V118.512H417.473Z" fill="#EFE9E5"/>
</svg>
