<svg width="402" height="48" viewBox="0 0 402 48" fill="none" xmlns="http://www.w3.org/2000/svg">
<g clip-path="url(#clip0_2404_1382)">
<path d="M243.21 19.1289C243.55 19.0289 243.61 18.7389 243.74 18.5289C244.5 17.3389 245.43 16.3089 246.56 15.4589C248.93 13.6789 251.6 12.8989 254.57 13.0789C258.87 13.3289 263.68 16.5889 265.05 21.7389C265.28 22.6089 265.41 23.4989 265.41 24.3989C265.41 31.6489 265.41 38.8989 265.41 46.1489C265.41 46.3789 265.38 46.6089 265.37 46.8789C264.68 46.9789 264.04 46.9589 263.38 46.8989C263.23 46.6089 263.29 46.3089 263.29 46.0289C263.29 43.5989 263.29 41.1789 263.29 38.7489C263.29 34.1589 263.29 29.5689 263.29 24.9889C263.29 23.4389 262.99 21.9489 262.31 20.5489C260.98 17.8089 258.86 15.9589 255.86 15.2989C252.5 14.5589 249.55 15.4689 247.02 17.7789C245.89 18.8089 245.08 20.0689 244.53 21.4889C244.39 21.8589 244.3 22.2389 244.3 22.6489C244.3 22.9089 244.3 23.1789 244.3 23.4389C244.3 30.8689 244.3 38.3089 244.3 45.7389C244.3 46.0989 244.36 46.4789 244.2 46.8589C243.58 46.9989 242.96 46.9289 242.3 46.9089C242.27 46.7489 242.22 46.5989 242.21 46.4589C242.19 46.1989 242.21 45.9289 242.21 45.6689C242.21 38.1289 242.21 30.5889 242.21 23.0489C242.21 22.3389 242.07 21.6989 241.78 21.0689C240.53 18.2989 238.5 16.3689 235.58 15.4789C231.51 14.2289 227.32 15.7889 224.91 19.2189C223.72 20.9089 223.13 22.7889 223.1 24.8489C223.1 25.1889 223.1 25.5389 223.1 25.8789C223.1 32.4989 223.1 39.1189 223.1 45.7289C223.1 46.0989 223.08 46.4589 223.07 46.8489C222.38 47.0389 221.74 46.9289 221.09 46.9289C220.97 46.5889 221 46.2989 221 46.0089C221 42.7089 221 39.4189 221 36.1189C221 32.3189 221.07 28.5289 220.98 24.7289C220.86 19.4589 224.62 14.7789 229.76 13.4389C234.99 12.0789 240.19 14.3489 242.83 18.5689C242.95 18.7689 243.09 18.9489 243.22 19.1389L243.21 19.1289Z" fill="white"/>
<path d="M33.04 0.349637C33.26 0.329637 33.47 0.29964 33.67 0.30964C34.06 0.30964 34.46 0.269639 34.89 0.359639C34.91 0.519639 34.94 0.669638 34.95 0.819638C34.96 0.979638 34.95 1.13964 34.95 1.28964C34.95 10.8596 34.95 20.4296 34.95 29.9996C34.95 31.6396 34.8 33.2596 34.34 34.8496C32.86 39.9996 29.62 43.6596 24.81 45.9496C22.27 47.1596 19.56 47.7196 16.75 47.5196C10.79 47.0996 6.20004 44.3196 2.98004 39.2996C1.61004 37.1596 0.770035 34.7996 0.500035 32.2796C-0.529965 22.8896 5.48003 15.7296 13.04 13.5996C14.96 13.0596 16.92 12.8596 18.91 12.9896C20.52 13.0996 22.1 13.3996 23.62 13.9696C23.79 14.0296 23.96 14.1096 24.13 14.1896C24.18 14.2096 24.21 14.2596 24.3 14.3296C24.12 14.8996 23.85 15.4596 23.6 15.9896C23.34 16.1396 23.15 15.9796 22.97 15.9096C20.89 15.1096 18.73 14.8196 16.52 15.0096C11.94 15.4096 8.23003 17.4396 5.45003 21.1096C3.82003 23.2596 2.80003 25.6796 2.52003 28.3496C1.92003 34.1296 3.94004 38.8496 8.51004 42.4396C10.54 44.0296 12.88 44.9896 15.42 45.3696C19.59 45.9896 23.38 44.9596 26.75 42.4696C29.62 40.3496 31.58 37.5696 32.51 34.0996C32.78 33.0996 32.94 32.0896 32.94 31.0596C32.94 30.6096 32.94 30.1596 32.94 29.7196C32.94 20.2796 32.94 10.8496 32.94 1.40964C32.94 1.06964 32.89 0.729637 33.02 0.369637L33.04 0.349637Z" fill="white"/>
<path d="M281.7 25.7606C282.12 25.7606 282.46 25.7505 282.8 25.7505C289.55 25.7505 296.31 25.7505 303.06 25.7505C303.39 25.7505 303.74 25.8205 304.07 25.6505C304.17 25.3205 304 25.0606 303.9 24.8006C303.12 22.7806 301.95 21.0106 300.38 19.5106C297.99 17.2206 295.18 15.7706 291.89 15.2606C289.13 14.8306 286.48 15.2005 283.94 16.3505C280.35 17.9905 277.65 20.5705 275.91 24.1005C274.1 27.7905 273.91 31.6205 275.38 35.4505C277.37 40.6205 281.12 43.8506 286.5 45.1906C291.77 46.2006 296.36 44.8505 300.28 41.1905C300.51 40.9806 300.7 40.7205 300.91 40.4905C301.33 40.6205 301.52 40.9205 301.77 41.1305C302.01 41.3305 302.22 41.5605 302.45 41.7705C296.98 47.7105 288.74 49.2805 281.63 45.4905C274.51 41.7005 270.63 33.3005 273.25 25.0705C275.62 17.6505 282.88 12.2206 291.48 13.1606C301.06 14.2106 306.04 22.0206 306.66 27.6906C306.56 27.7106 306.47 27.7506 306.37 27.7606C305.16 27.8306 282.31 27.7705 281.73 27.7005C281.58 27.0905 281.65 26.4705 281.7 25.7505V25.7606Z" fill="white"/>
<path d="M181.01 27.7101C180.92 27.7301 180.82 27.7701 180.72 27.7701C172.54 27.7701 164.37 27.7701 156.15 27.7701C155.94 27.1001 155.98 26.4701 156.11 25.8101C156.48 25.7001 156.82 25.7401 157.16 25.7401C163.94 25.7401 170.72 25.7401 177.5 25.7401C177.81 25.7401 178.13 25.7901 178.42 25.6701C178.53 25.2901 178.34 25.0101 178.23 24.7301C177.45 22.7401 176.28 21.0001 174.75 19.5101C172.45 17.2801 169.73 15.8601 166.58 15.3001C163.18 14.7001 159.97 15.3201 156.97 17.0201C154.46 18.4401 152.44 20.3701 150.96 22.8501C148.47 27.0201 148.07 31.4101 149.92 35.8901C151.91 40.7001 155.49 43.8101 160.56 45.1001C165.54 46.3701 170.93 44.8101 174.58 41.2501C174.83 41.0101 175.05 40.7501 175.3 40.4701C175.91 40.8401 176.34 41.3201 176.79 41.7801C171.5 47.5801 163.32 49.3101 156.13 45.5701C148.78 41.7401 144.99 33.1601 147.63 25.0001C150.08 17.4501 157.54 12.2001 165.99 13.1801C170.39 13.6901 174.06 15.6801 176.99 18.9901C179.17 21.4501 180.96 25.3501 181 27.7001L181.01 27.7101Z" fill="white"/>
<path d="M91.7796 40.3989L93.2296 41.7489C93.1696 41.8589 93.1296 41.9689 93.0696 42.0289C90.7196 44.3389 88.0496 46.1289 84.8196 46.9689C82.8096 47.4989 80.7796 47.6389 78.7096 47.4389C72.7696 46.8589 67.0996 42.9089 64.5696 36.8889C63.5496 34.4689 63.1496 31.9489 63.2696 29.3189C63.5996 22.4989 68.2696 16.0489 75.4196 13.8189C77.6196 13.1389 79.8696 12.9089 82.1396 13.1489C89.9296 13.9589 95.7296 19.6789 97.2896 26.5389C97.3696 26.9089 97.5496 27.2889 97.3996 27.7289C97.2296 27.7489 97.0496 27.7789 96.8696 27.7789C91.2996 27.8889 73.4096 27.8289 72.5896 27.7089C72.4396 27.1489 72.4296 26.6089 72.5596 25.8189C72.6896 25.7989 72.8396 25.7589 72.9896 25.7589C73.2496 25.7489 73.5196 25.7589 73.7796 25.7589C80.4796 25.7589 87.1796 25.7589 93.8796 25.7589C94.1896 25.7589 94.5096 25.7489 94.8696 25.7389C94.8496 25.5389 94.8696 25.3789 94.8196 25.2489C94.5596 24.6189 94.3296 23.9589 94.0096 23.3689C91.6296 18.9589 87.9396 16.2889 83.0496 15.3389C80.0096 14.7389 77.0696 15.2089 74.2796 16.5789C71.2396 18.0789 68.8396 20.2789 67.1696 23.2289C64.8996 27.2389 64.5596 31.4389 66.2596 35.7089C68.2096 40.6089 71.7996 43.7789 76.9196 45.1089C81.9796 46.4289 87.4096 44.8189 91.0696 41.2089C91.2896 40.9889 91.4896 40.7389 91.7596 40.4189L91.7796 40.3989Z" fill="white"/>
<path d="M336.52 14.3405C336.33 14.9305 336.1 15.5005 335.77 16.0805C335.58 16.0205 335.4 15.9805 335.23 15.9205C332.89 15.0405 330.48 14.8005 328 15.0905C321.55 15.8505 316.3 20.8005 314.97 27.0805C313.29 35.0205 318.01 42.4005 325.18 44.7705C327 45.3705 328.87 45.6505 330.79 45.5205C334.04 45.2905 336.95 44.1505 339.48 42.1005C342.23 39.8705 344.08 37.0605 344.88 33.5905C345.14 32.4805 345.21 31.3505 345.21 30.2105C345.21 26.2005 345.21 22.2005 345.21 18.1905C345.21 12.6005 345.21 7.01049 345.21 1.42049C345.21 1.08049 345.17 0.740494 345.3 0.370494C345.87 0.260494 346.44 0.310495 347.06 0.340495C347.1 0.490495 347.17 0.630494 347.18 0.780494C347.2 0.990494 347.19 1.20049 347.19 1.41049C347.19 10.8705 347.19 20.3405 347.19 29.8005C347.19 31.5505 347.05 33.2805 346.55 34.9605C344.98 40.2105 341.64 43.9005 336.66 46.1205C334.22 47.2105 331.63 47.6905 328.95 47.5305C321.8 47.0905 316.8 42.7305 314.39 37.8305C312.93 34.8705 312.36 31.7305 312.7 28.4605C313.54 20.4005 319.25 15.4305 324.85 13.7305C326.92 13.1005 329.03 12.8605 331.18 13.0005C332.74 13.1005 334.26 13.3905 335.73 13.9305C336 14.0305 336.3 14.0705 336.51 14.3405H336.52Z" fill="white"/>
<path d="M139.68 46.8898C139.04 46.9598 138.45 46.9498 137.86 46.8898C137.66 46.6498 137.73 46.3698 137.73 46.1198C137.73 44.1998 137.73 42.2698 137.73 40.3498C137.73 37.0498 137.71 33.7598 137.73 30.4598C137.79 23.3998 132.87 17.1898 126.1 15.5098C120.88 14.2198 116.22 15.4898 112.22 19.0398C109.52 21.4398 107.9 24.4598 107.33 28.0298C107.19 28.8798 107.15 29.7598 107.15 30.6298C107.13 35.7198 107.15 40.8098 107.15 45.8898C107.15 46.1998 107.18 46.5198 107.08 46.8498C106.76 46.9498 106.45 46.9098 106.14 46.9198C105.85 46.9198 105.56 46.9198 105.24 46.8998C105.21 46.6898 105.17 46.5098 105.16 46.3398C105.15 46.1598 105.16 45.9698 105.16 45.7898C105.16 30.9998 105.16 16.2098 105.16 1.41978C105.16 1.07978 105.12 0.739783 105.23 0.369783C105.53 0.259783 105.85 0.309784 106.16 0.299784C106.45 0.299784 106.73 0.299784 107.06 0.299784C107.1 0.489784 107.15 0.639783 107.16 0.779783C107.18 1.03978 107.16 1.30978 107.16 1.56978C107.16 8.07978 107.16 14.5898 107.16 21.1098V22.0298C107.37 22.1298 107.44 22.0298 107.52 21.9098C108.1 21.0898 108.64 20.2398 109.27 19.4698C111.14 17.1498 113.42 15.3598 116.2 14.2298C118.3 13.3698 120.5 13.0098 122.77 13.0498C130.44 13.1798 136.96 18.5398 139.03 25.4198C139.49 26.9398 139.75 28.4998 139.75 30.0898C139.75 35.4398 139.75 40.7898 139.75 46.1498C139.75 46.3798 139.73 46.6098 139.71 46.8898H139.68Z" fill="white"/>
<path d="M401.62 46.8899C400.94 46.9599 400.37 46.9399 399.76 46.8899C399.73 46.6999 399.69 46.5499 399.68 46.3999C399.67 46.1399 399.68 45.8699 399.68 45.6099C399.68 40.5199 399.68 35.4299 399.68 30.3499C399.68 28.7599 399.52 27.1899 399.02 25.6699C397.76 21.8299 395.29 18.9899 391.81 17.0099C390.07 16.0199 388.2 15.3699 386.22 15.1599C381.43 14.6399 377.25 16.0699 373.75 19.3699C371.23 21.7499 369.76 24.6899 369.25 28.1299C368.13 35.7699 373.14 43.4099 380.93 45.1999C383.8 45.8599 386.64 45.6799 389.42 44.7199C389.67 44.6299 389.91 44.5399 390.17 44.4499C390.45 44.6699 390.5 44.9999 390.64 45.2699C390.78 45.5499 390.88 45.8499 391.02 46.1799C390.84 46.2799 390.69 46.3799 390.53 46.4499C388.59 47.1899 386.59 47.5599 384.51 47.5899C378.23 47.6699 371.97 43.9799 369 38.2099C367.73 35.7499 367.14 33.1399 367.11 30.3699C367.05 24.0899 370.7 17.8099 376.78 14.8199C379.51 13.4699 382.4 12.9399 385.44 13.0999C391.25 13.3999 397.48 17.0399 400.26 23.3999C401.25 25.6599 401.68 28.0199 401.68 30.4799C401.68 34.0699 401.68 37.6499 401.68 41.2399C401.68 42.8199 401.68 44.3999 401.68 45.9899C401.68 46.2799 401.66 46.5599 401.64 46.9199L401.62 46.8899Z" fill="white"/>
<path d="M60.3105 14.9206C60.1505 14.9406 59.9705 14.9606 59.7905 14.9706C52.3905 15.3306 46.7605 20.7906 45.5105 27.2806C45.3105 28.3206 45.2105 29.3606 45.2105 30.4206C45.2105 35.5606 45.2105 40.7006 45.2105 45.8406V46.8106C44.5705 47.0406 43.9505 46.8806 43.3405 46.9206C43.1405 46.6106 43.2105 46.3106 43.2105 46.0306C43.2105 43.5306 43.2105 41.0206 43.2105 38.5206C43.2105 35.6206 43.1705 32.7206 43.2205 29.8206C43.3005 25.6006 44.7305 21.8806 47.5705 18.7406C50.2205 15.8106 53.5105 13.9806 57.4005 13.2506C58.2005 13.1006 59.0205 13.0506 59.8305 12.9606C59.9805 12.9406 60.1405 12.9806 60.2805 12.9906C60.4305 13.5706 60.4405 14.1506 60.3005 14.9106L60.3105 14.9206Z" fill="white"/>
<path d="M190.02 46.9007H188.24C188.03 46.6407 188.1 46.3707 188.1 46.1107C188.1 44.1107 188.1 42.1107 188.1 40.1007C188.1 36.7507 188.07 33.4107 188.1 30.0607C188.15 26.2007 189.28 22.6907 191.69 19.6507C194.42 16.2107 197.95 14.0707 202.27 13.2507C203.07 13.1007 203.89 13.0507 204.7 12.9607C204.85 12.9407 205.01 12.9807 205.15 12.9807C205.31 13.5607 205.32 14.1107 205.18 14.9107C205.04 14.9207 204.89 14.9507 204.74 14.9507C197.7 15.2507 191.86 20.3007 190.41 27.1107C190.17 28.2207 190.07 29.3507 190.07 30.4807C190.07 35.6207 190.07 40.7507 190.07 45.8907C190.07 46.2007 190.1 46.5207 190 46.8807L190.02 46.9007Z" fill="white"/>
<path d="M358.83 46.8795C358.09 46.9695 357.44 46.9195 356.76 46.9095C356.72 46.7295 356.68 46.5895 356.67 46.4395C356.65 46.2295 356.67 46.0195 356.67 45.8095C356.67 35.4295 356.67 25.0495 356.67 14.6695C356.67 14.3295 356.64 13.9895 356.73 13.6095C357.4 13.5195 358.05 13.5695 358.74 13.5795C358.78 13.7595 358.82 13.8995 358.83 14.0495C358.85 14.2895 358.83 14.5195 358.83 14.7595C358.83 25.0895 358.83 35.4195 358.83 45.7495V46.8795Z" fill="white"/>
<path d="M358.82 7.68042C358.06 7.71042 357.41 7.74042 356.71 7.66042C356.63 6.81042 356.68 6.00042 356.67 5.19042C356.67 4.40042 356.66 3.61043 356.67 2.83043C356.68 2.02043 356.62 1.21042 356.71 0.420422C357.34 0.270422 358.06 0.270424 358.81 0.410424C358.88 1.20042 358.83 2.01042 358.84 2.82042C358.84 3.61042 358.84 4.40042 358.84 5.18042C358.84 5.99042 358.85 6.80042 358.82 7.69042V7.68042Z" fill="white"/>
<path d="M209.35 43.6097C210.36 43.5397 211.27 43.5797 212.19 43.5797C212.34 43.5797 212.49 43.6297 212.62 43.6597C212.74 44.3397 212.75 46.0997 212.64 46.8197C212.11 46.9597 210.48 46.9897 209.42 46.8797C209.39 46.7997 209.33 46.7097 209.33 46.6097C209.33 45.6497 209.28 44.6797 209.36 43.6097H209.35Z" fill="white"/>
</g>
<defs>
<clipPath id="clip0_2404_1382">
<rect width="402" height="48" fill="white"/>
</clipPath>
</defs>
</svg>
