<svg width="428" height="83" viewBox="0 0 428 83" fill="none" xmlns="http://www.w3.org/2000/svg">
<path d="M0.96 81V1.64H42.304V8.68H9.408V33.512H34.496V40.552H9.408V73.832H52.928L51.136 81H0.96ZM94.726 65.896L122.502 1.64H131.334L95.494 82.536H93.958L57.99 1.64H66.694L94.726 65.896ZM150.565 81V1.64H191.909V8.68H159.013V33.512H184.101V40.552H159.013V73.832H202.533L200.741 81H150.565ZM286.96 82.024L230.128 18.536V81H221.68V0.359993H223.344L280.432 64.232V1.64H288.88V82.024H286.96ZM340.597 8.68V81H332.277V8.68H309.365L311.157 1.64H362.869V8.68H340.597ZM422.287 7.016C422.159 9.576 421.903 12.136 421.775 14.696C416.271 10.6 409.231 7.784 401.935 7.784C394.255 7.784 385.295 10.856 385.295 19.944C385.295 39.656 427.279 31.08 427.279 59.624C427.279 72.936 416.655 82.408 400.527 82.408C391.695 82.408 382.863 80.232 373.775 73.704L377.359 67.304C384.783 72.552 393.231 75.24 400.399 75.24C412.303 75.24 418.959 68.584 418.959 59.624C418.959 37.224 376.847 46.056 376.847 20.072C376.847 7.656 387.343 0.487999 401.551 0.487999C410.127 0.487999 417.423 3.432 422.287 7.016Z" fill="#EFE9E5"/>
</svg>
