<svg width="70" height="71" viewBox="0 0 70 71" fill="none" xmlns="http://www.w3.org/2000/svg">
<path d="M70 35.4776C70 15.8835 54.3304 0 35 0C15.6696 0 0 15.8835 0 35.4776C0 53.1849 12.797 67.8647 29.5296 70.5242V45.7319H20.6422V35.4776H29.5296V27.662C29.5296 18.769 34.7563 13.8599 42.7519 13.8599C46.5837 13.8599 50.5867 14.5537 50.5867 14.5537V23.2838H46.1741C41.8289 23.2838 40.4704 26.0169 40.4704 28.8236V35.4776H50.177L48.6267 45.7319H40.4704V70.5242C57.203 67.8647 70 53.1849 70 35.4776Z" fill="#EFE9E5"/>
<path d="M48.6212 45.7324L50.1715 35.478H40.4649V28.824C40.4649 26.0173 41.8182 23.2843 46.1686 23.2843H50.5812V14.5541C50.5812 14.5541 46.5782 13.8604 42.7463 13.8604C34.7508 13.8604 29.5241 18.7694 29.5241 27.6625V35.478H20.6367V45.7324H29.5241V70.5247C31.3078 70.8085 33.133 70.9557 34.9945 70.9557C36.856 70.9557 38.6812 70.8085 40.4649 70.5247V45.7324H48.6212Z" fill="#1F4D4B"/>
</svg>
