<svg width="70" height="71" viewBox="0 0 70 71" fill="none" xmlns="http://www.w3.org/2000/svg">
<g id="Group">
<path id="Vector" d="M35 70.9552C54.33 70.9552 70 55.0713 70 35.4776C70 15.8839 54.33 0 35 0C15.67 0 0 15.8839 0 35.4776C0 55.0713 15.67 70.9552 35 70.9552Z" fill="#EFE9E5"/>
<g id="Group_2">
<path id="Vector_2" d="M34.9953 17.1667C40.8805 17.1667 41.5753 17.1877 43.8983 17.2981C46.045 17.3979 47.2116 17.7606 47.9894 18.0654C49.0161 18.4701 49.7524 18.9537 50.525 19.7368C51.2976 20.52 51.7746 21.2611 52.1739 22.307C52.4746 23.0954 52.8324 24.278 52.9309 26.4539C53.0346 28.8086 53.0605 29.5181 53.0605 35.4784C53.0605 41.4386 53.0398 42.1482 52.9309 44.5028C52.8324 46.6788 52.4746 47.8614 52.1739 48.6498C51.7746 49.6904 51.2976 50.4368 50.525 51.2199C49.7524 52.0031 49.0213 52.4866 47.9894 52.8913C47.2116 53.1962 46.045 53.5588 43.8983 53.6587C41.5753 53.7638 40.8805 53.7901 34.9953 53.7901C29.1102 53.7901 28.4153 53.769 26.0924 53.6587C23.9457 53.5588 22.779 53.1962 22.0013 52.8913C20.9746 52.4866 20.2383 52.0031 19.4657 51.2199C18.6931 50.4368 18.2161 49.6957 17.8168 48.6498C17.5161 47.8614 17.1583 46.6788 17.0598 44.5028C16.9561 42.1482 16.9302 41.4386 16.9302 35.4784C16.9302 29.5181 16.9509 28.8086 17.0598 26.4539C17.1583 24.278 17.5161 23.0954 17.8168 22.307C18.2161 21.2663 18.6931 20.52 19.4657 19.7368C20.2383 18.9537 20.9694 18.4701 22.0013 18.0654C22.779 17.7606 23.9457 17.3979 26.0924 17.2981C28.4153 17.193 29.1153 17.1667 34.9953 17.1667ZM34.9953 13.1406C29.0116 13.1406 28.2598 13.1669 25.9109 13.2773C23.5672 13.3877 21.965 13.7608 20.5598 14.318C19.1131 14.8909 17.8842 15.653 16.6553 16.8934C15.4316 18.1338 14.6746 19.3794 14.1146 20.8511C13.5702 22.2702 13.1968 23.8943 13.0879 26.2752C12.979 28.6562 12.9531 29.4183 12.9531 35.4836C12.9531 41.549 12.979 42.3111 13.0879 44.692C13.1968 47.0677 13.565 48.6918 14.1146 50.1162C14.6798 51.5826 15.4316 52.8282 16.6553 54.0739C17.879 55.3143 19.1079 56.0817 20.5598 56.6493C21.9598 57.2012 23.562 57.5796 25.9109 57.69C28.2598 57.8004 29.0116 57.8266 34.9953 57.8266C40.979 57.8266 41.7309 57.8004 44.0798 57.69C46.4235 57.5796 48.0257 57.2064 49.4309 56.6493C50.8775 56.0764 52.1065 55.3143 53.3353 54.0739C54.559 52.8335 55.3161 51.5878 55.8761 50.1162C56.4205 48.6971 56.7939 47.073 56.9027 44.692C57.0116 42.3111 57.0376 41.549 57.0376 35.4836C57.0376 29.4183 57.0116 28.6562 56.9027 26.2752C56.7939 23.8995 56.4257 22.2754 55.8761 20.8511C55.3109 19.3847 54.559 18.139 53.3353 16.8934C52.1116 15.653 50.8827 14.8856 49.4309 14.318C48.0309 13.7661 46.4287 13.3877 44.0798 13.2773C41.7309 13.1669 40.979 13.1406 34.9953 13.1406Z" fill="#1F4D4B"/>
<path id="Vector_3" d="M34.9938 24.0117C28.7456 24.0117 23.6797 29.1468 23.6797 35.4802C23.6797 41.8136 28.7456 46.9486 34.9938 46.9486C41.2419 46.9486 46.3078 41.8136 46.3078 35.4802C46.3078 29.1468 41.2419 24.0117 34.9938 24.0117ZM34.9938 42.9278C30.9389 42.9278 27.6463 39.5956 27.6463 35.4802C27.6463 31.3648 30.9338 28.0325 34.9938 28.0325C39.0538 28.0325 42.3412 31.3648 42.3412 35.4802C42.3412 39.5956 39.0538 42.9278 34.9938 42.9278Z" fill="#1F4D4B"/>
<path id="Vector_4" d="M46.7617 26.2322C48.2221 26.2322 49.4061 25.032 49.4061 23.5516C49.4061 22.0712 48.2221 20.8711 46.7617 20.8711C45.3012 20.8711 44.1172 22.0712 44.1172 23.5516C44.1172 25.032 45.3012 26.2322 46.7617 26.2322Z" fill="#1F4D4B"/>
</g>
</g>
</svg>
