<svg width="70" height="71" viewBox="0 0 70 71" fill="none" xmlns="http://www.w3.org/2000/svg">
<g id="Group">
<path id="Vector" d="M35 70.9552C54.33 70.9552 70 55.0713 70 35.4776C70 15.8839 54.33 0 35 0C15.67 0 0 15.8839 0 35.4776C0 55.0713 15.67 70.9552 35 70.9552Z" fill="#EFE9E5"/>
<path id="Vector_2" d="M57.3637 24.0937C56.8297 22.0597 55.2482 20.4566 53.2363 19.91C49.5963 18.9219 35.0052 18.9219 35.0052 18.9219C35.0052 18.9219 20.4141 18.9219 16.7741 19.91C14.7674 20.4566 13.186 22.0544 12.6467 24.0937C11.6719 27.7834 11.6719 35.4781 11.6719 35.4781C11.6719 35.4781 11.6719 43.1728 12.6467 46.8625C13.1808 48.8965 14.7623 50.4996 16.7741 51.0462C20.4141 52.0343 35.0052 52.0343 35.0052 52.0343C35.0052 52.0343 49.5963 52.0343 53.2363 51.0462C55.243 50.4996 56.8245 48.9018 57.3637 46.8625C58.3385 43.1728 58.3385 35.4781 58.3385 35.4781C58.3385 35.4781 58.3385 27.7834 57.3637 24.0937ZM30.3385 42.5736V28.3826L42.4615 35.4781L30.3385 42.5736Z" fill="#1F4D4B"/>
</g>
</svg>
