<?xml version="1.0" encoding="UTF-8"?>
<svg id="Ebene_1" data-name="Ebene 1" xmlns="http://www.w3.org/2000/svg" viewBox="0 0 114.02 102.31">
  <defs>
    <style>
      .cls-1 {
        fill: #1d1d1b;
      }
    </style>
  </defs>
  <path class="cls-1" d="m0,37.09C0,13.46,16.03,0,37.32,0c11.93,0,21.53,5.26,24.22,7.14l-.58,7.14c-2.69-1.75-12.17-7.84-23.4-7.84-16.62,0-29.6,10.88-29.6,30.54s12.64,30.89,29.37,30.89c11.7,0,20.01-5.38,23.28-7.72l3.28,6.32c-8.42,5.73-17.2,8.07-26.56,8.07C16.03,74.53,0,60.72,0,37.09Z"/>
  <path class="cls-1" d="m108.99,40.41c-5.03-3.74-11.47-6.32-18.14-6.32-7.02,0-15.21,2.81-15.21,11.12,0,18.02,38.38,10.18,38.38,36.27,0,12.17-9.71,20.83-24.45,20.83-8.07,0-16.15-1.99-24.45-7.96l3.28-5.85c6.79,4.8,14.51,7.25,21.06,7.25,10.88,0,16.96-6.08,16.96-14.27,0-20.48-38.49-12.4-38.49-36.15,0-11.35,9.59-17.9,22.58-17.9,7.84,0,14.51,2.69,18.96,5.97-.12,2.34-.35,4.68-.47,7.02Z"/>
</svg>