<svg width="378" height="81" viewBox="0 0 378 81" fill="none" xmlns="http://www.w3.org/2000/svg">
<path d="M43.232 45.288L70.24 0.615997H72.032L86.112 81H77.92L67.168 19.944L43.232 59.624L19.424 19.944L8.672 81H0.48L14.56 0.615997H16.224L43.232 45.288ZM109.825 81V1.64H151.169V8.68H118.273V33.512H143.361V40.552H118.273V73.832H161.793L160.001 81H109.825ZM248.268 41.32C248.268 63.336 234.444 81 200.78 81H180.94V1.64H200.78C234.444 1.64 248.268 19.176 248.268 41.32ZM239.82 41.192C239.82 22.888 228.172 8.55199 201.548 8.55199H189.388V73.832H201.548C228.172 73.832 239.82 59.496 239.82 41.192ZM272.555 81V1.64H281.003V81H272.555ZM377.906 81H368.946L360.754 62.952H318.13L310.066 81H300.85L338.482 0.231995H340.274L377.906 81ZM339.378 15.72L320.946 56.168H357.81L339.378 15.72Z" fill="#EFE9E5"/>
</svg>
