<svg width="35" height="16" viewBox="0 0 35 16" fill="none" xmlns="http://www.w3.org/2000/svg">
<g id="Vector 6">
<path d="M34.2071 7.29289C34.5976 7.68342 34.5976 8.31658 34.2071 8.70711L27.8431 15.0711C27.4526 15.4616 26.8195 15.4616 26.4289 15.0711C26.0384 14.6805 26.0384 14.0474 26.4289 13.6569L32.0858 8L26.4289 2.34315C26.0384 1.95262 26.0384 1.31946 26.4289 0.928932C26.8195 0.538408 27.4526 0.538408 27.8431 0.928932L34.2071 7.29289ZM0 7L33.5 7V9L0 9L0 7Z" fill="black"/>
<path d="M34.2071 7.29289C34.5976 7.68342 34.5976 8.31658 34.2071 8.70711L27.8431 15.0711C27.4526 15.4616 26.8195 15.4616 26.4289 15.0711C26.0384 14.6805 26.0384 14.0474 26.4289 13.6569L32.0858 8L26.4289 2.34315C26.0384 1.95262 26.0384 1.31946 26.4289 0.928932C26.8195 0.538408 27.4526 0.538408 27.8431 0.928932L34.2071 7.29289ZM0 7L33.5 7V9L0 9L0 7Z" fill="white"/>
</g>
</svg>
